<svg fill="currentColor" xmlns="http://www.w3.org/2000/svg" width="32" height="32" id="horsehoe"><path style="line-height:normal;text-indent:0;text-align:start;text-decoration-line:none;text-decoration-style:solid;text-decoration-color:#000;text-transform:none;block-progression:tb;white-space:normal;isolation:auto;mix-blend-mode:normal;solid-color:#000;solid-opacity:1" d="M6.63 4.254a.5.5 0 0 0-.468.312l-1.129 2.79a.5.5 0 0 0 .276.652l1.175.476c-.948 2.552-1.486 5.05-1.486 7.391 0 3.494.931 6.518 2.94 8.389C9.884 26.079 12.67 27 15.993 27h.008c3.324 0 6.113-.921 8.06-2.736 2.009-1.872 2.936-4.895 2.936-8.389 0-2.341-.536-4.84-1.484-7.39l1.177-.477a.5.5 0 0 0 .276-.65L25.84 4.565a.5.5 0 0 0-.652-.275l-4.852 1.963a.5.5 0 0 0-.275.65l1.127 2.791a.5.5 0 0 0 .056.1c.478 1.538.754 3.027.754 4.39 0 2.263-.56 4.12-1.58 5.176-1.03 1.067-2.519 1.637-4.418 1.637h-.006c-1.899 0-3.388-.57-4.418-1.637-1.02-1.057-1.58-2.913-1.58-5.175 0-1.36.275-2.844.75-4.377a.5.5 0 0 0 .066-.116l1.13-2.789a.5.5 0 0 0-.278-.65L6.813 4.289a.5.5 0 0 0-.182-.035zm.27 1.15 3.926 1.588-.754 1.863-2.771-1.12a.5.5 0 0 0-.047-.018l-1.108-.45.754-1.863zm18.2.002.754 1.862-1.118.453a.5.5 0 0 0-.039.015l-.843.342-1.926.777-.754-1.86L25.1 5.405zM7.432 8.867l2.326.942c-.441 1.498-.762 2.98-.762 4.377 0 2.423.57 4.532 1.861 5.869 1.244 1.287 3.034 1.943 5.137 1.943H16c2.104 0 3.894-.656 5.137-1.943 1.29-1.337 1.861-3.446 1.861-5.87 0-1.395-.32-2.877-.762-4.374l2.332-.944c.906 2.45 1.43 4.827 1.43 7.008 0 3.315-.893 6.05-2.617 7.656C21.657 25.137 19.142 26 16.002 26h-.008c-3.14 0-5.651-.862-7.375-2.469-1.725-1.607-2.621-4.341-2.621-7.656 0-2.18.527-4.559 1.434-7.008zm.547 6.028-.999.035.016.498.035 1 .018.5 1-.035-.018-.5-.035-.998-.017-.5zm16.035 0-.018.5-.02.605-.017.5 1 .033.018-.5.02-.607.017-.5-1-.031zm-.17 2.52-.094.491-.053.276-.185.65-.137.48.96.274.14-.48.19-.667.01-.044.057-.301.094-.492-.982-.188zm-15.666.353-.961.273.137.482.22.772.016.047.074.183.184.465.93-.37-.186-.464-.065-.162-.213-.746-.136-.48zm14.865 2.314-.29.41-.357.51-.21.227-.34.365.73.681.342-.365.227-.244.043-.055.384-.545.287-.408-.816-.576zm-13.865.322-.817.576.29.41.156.223.043.053.496.531.34.366.732-.682-.342-.365-.47-.506-.14-.198-.288-.408zm12.037 1.74-.445.225-.68.348-.01.01-.164.06-.465.182.363.931.467-.183.21-.082.046-.018.69-.353.443-.229-.455-.89zm-10.084.174-.457.893.445.228.34.174.045.018.576.226.465.182.365-.932-.467-.181-.545-.213-.324-.166-.443-.229zm7.447.895-.49.101-.295.055-.656.074-.496.055.109.994.496-.056.68-.075.04-.01.311-.062.49-.094-.189-.982zm-4.82.105-.11.996.497.055.835.094h.038l.16.01.498.017.035-1-.498-.017-.158-.01h-.002l-.8-.088-.495-.057z" color="#000" enable-background="accumulate" font-family="sans-serif" font-weight="400" overflow="visible"></path></svg>