<svg xmlns="http://www.w3.org/2000/svg" width="140" height="140" viewBox="0 0 140 140">
    <defs>
        <linearGradient id="pr4zbl7m6a" x1="105.747%" x2="10.871%" y1="-7.462%" y2="85.033%">
            <stop offset="0%" stop-color="#E58C8A"/>
            <stop offset="100%" stop-color="#EEC0C6"/>
        </linearGradient>
        <linearGradient id="zg4s289d1b" x1="105.747%" x2="10.871%" y1="27.001%" y2="64.022%">
            <stop offset="0%" stop-color="#E58C8A"/>
            <stop offset="100%" stop-color="#EEC0C6"/>
        </linearGradient>
        <linearGradient id="d9a09mqvcc" x1="58.92%" x2="43.739%" y1="-7.462%" y2="85.033%">
            <stop offset="0%" stop-color="#E58C8A"/>
            <stop offset="100%" stop-color="#EEC0C6"/>
        </linearGradient>
        <linearGradient id="6dmgyk4gyd" x1="54.551%" x2="46.806%" y1="-7.462%" y2="85.033%">
            <stop offset="0%" stop-color="#E58C8A"/>
            <stop offset="100%" stop-color="#EEC0C6"/>
        </linearGradient>
        <linearGradient id="e9eegvspse" x1="105.747%" x2="10.871%" y1="41.31%" y2="55.298%">
            <stop offset="0%" stop-color="#E58C8A"/>
            <stop offset="100%" stop-color="#EEC0C6"/>
        </linearGradient>
        <linearGradient id="ayprrse8pf" x1="105.747%" x2="10.871%" y1="49.932%" y2="50.042%">
            <stop offset="0%" stop-color="#E58C8A"/>
            <stop offset="100%" stop-color="#EEC0C6"/>
        </linearGradient>
        <linearGradient id="vxugbktghg" x1="105.747%" x2="10.871%" y1="26.464%" y2="64.35%">
            <stop offset="0%" stop-color="#E58C8A"/>
            <stop offset="100%" stop-color="#EEC0C6"/>
        </linearGradient>
        <linearGradient id="y8zwdof84h" x1="59.077%" x2="43.629%" y1="-7.462%" y2="85.033%">
            <stop offset="0%" stop-color="#E58C8A"/>
            <stop offset="100%" stop-color="#EEC0C6"/>
        </linearGradient>
        <linearGradient id="w46yfjivgi" x1="54%" x2="47.193%" y1="-7.462%" y2="85.033%">
            <stop offset="0%" stop-color="#E58C8A"/>
            <stop offset="100%" stop-color="#EEC0C6"/>
        </linearGradient>
        <linearGradient id="jcw3sg3fnj" x1="105.747%" x2="10.871%" y1="49.934%" y2="50.04%">
            <stop offset="0%" stop-color="#E58C8A"/>
            <stop offset="100%" stop-color="#EEC0C6"/>
        </linearGradient>
        <linearGradient id="4398c4uw3k" x1="105.747%" x2="10.871%" y1="-7.462%" y2="85.033%">
            <stop offset="0%" stop-color="#EEC0C6"/>
            <stop offset="100%" stop-color="#E58C8A"/>
        </linearGradient>
    </defs>
    <g fill="none" fill-rule="evenodd">
        <g>
            <g>
                <path fill="url(#pr4zbl7m6a)" d="M69.854 0c38.58 0 69.855 31.275 69.855 69.854 0 38.58-31.275 69.855-69.855 69.855C31.274 139.709 0 108.434 0 69.854 0 31.274 31.275 0 69.854 0zm.2 14.37c-30.533 0-55.285 24.752-55.285 55.285 0 30.533 24.752 55.285 55.285 55.285 30.533 0 55.285-24.752 55.285-55.285 0-30.533-24.752-55.285-55.285-55.285z" transform="translate(-480 -584) translate(480 584)"/>
                <g transform="translate(-480 -584) translate(480 584) translate(14.77 14.37)">
                    <circle cx="55.103" cy="55.484" r="48.698" stroke="url(#pr4zbl7m6a)"/>
                    <circle cx="55.103" cy="55.484" r="15.84" stroke="url(#pr4zbl7m6a)"/>
                    <text fill="#FFF" font-family="OpenSans-SemiBold, Open Sans" font-size="3.992" font-weight="500">
                        <tspan x="4.009" y="69.863">1</tspan>
                    </text>
                    <text fill="#FFF" font-family="OpenSans-SemiBold, Open Sans" font-size="3.992" font-weight="500">
                        <tspan x="20.774" y="95.809">2</tspan>
                    </text>
                    <text fill="#FFF" font-family="OpenSans-SemiBold, Open Sans" font-size="3.992" font-weight="500">
                        <tspan x="51.51" y="107.385">3</tspan>
                    </text>
                    <text fill="#FFF" font-family="OpenSans-SemiBold, Open Sans" font-size="3.992" font-weight="500">
                        <tspan x="79.851" y="100.599">4</tspan>
                    </text>
                    <text fill="#FFF" font-family="OpenSans-SemiBold, Open Sans" font-size="3.992" font-weight="500">
                        <tspan x="97.814" y="83.834">5</tspan>
                    </text>
                    <text fill="#FFF" font-family="OpenSans-SemiBold, Open Sans" font-size="3.992" font-weight="500">
                        <tspan x="104.999" y="65.073">6</tspan>
                    </text>
                    <text fill="#FFF" font-family="OpenSans-SemiBold, Open Sans" font-size="3.992" font-weight="500">
                        <tspan x="103.801" y="41.123">7</tspan>
                    </text>
                    <text fill="#FFF" font-family="OpenSans-SemiBold, Open Sans" font-size="3.992" font-weight="500">
                        <tspan x="86.637" y="15.576">8</tspan>
                    </text>
                    <text fill="#FFF" font-family="OpenSans-SemiBold, Open Sans" font-size="3.992" font-weight="500">
                        <tspan x="56.3" y="4">9</tspan>
                    </text>
                    <text fill="#FFF" font-family="OpenSans-SemiBold, Open Sans" font-size="3.992" font-weight="500" letter-spacing="-.319">
                        <tspan x="26.363" y="10.786">10</tspan>
                    </text>
                    <text fill="#FFF" font-family="OpenSans-SemiBold, Open Sans" font-size="3.992" font-weight="500" letter-spacing="-.319">
                        <tspan x="9.198" y="27.551">11</tspan>
                    </text>
                    <text fill="#FFF" font-family="OpenSans-SemiBold, Open Sans" font-size="3.992" font-weight="500" letter-spacing="-.319">
                        <tspan x="1.614" y="46.312">12</tspan>
                    </text>
                    <path stroke="url(#zg4s289d1b)" stroke-linecap="round" stroke-linejoin="round" d="M82.446 38.52L101.465 26.345"/>
                    <path stroke="url(#d9a09mqvcc)" stroke-linecap="round" stroke-linejoin="round" d="M66.479 25.746L74.862 4.191"/>
                    <path stroke="url(#6dmgyk4gyd)" stroke-linecap="round" stroke-linejoin="round" d="M46.591 24.848L40.533 2.595"/>
                    <path stroke="url(#pr4zbl7m6a)" stroke-linecap="round" stroke-linejoin="round" d="M31.751 32.532L16.184 16.965"/>
                    <path stroke="url(#e9eegvspse)" stroke-linecap="round" stroke-linejoin="round" d="M25.33 44.358L3.81 36.125"/>
                    <path stroke="url(#ayprrse8pf)" stroke-linecap="round" stroke-linejoin="round" d="M23.117 55.659L0.217 55.684"/>
                    <path stroke="url(#vxugbktghg)" stroke-linecap="round" stroke-linejoin="round" d="M28.197 72.511L8.6 84.823"/>
                    <path stroke="url(#y8zwdof84h)" stroke-linecap="round" stroke-linejoin="round" d="M43.585 85.422L35.344 106.777"/>
                    <path stroke="url(#w46yfjivgi)" stroke-linecap="round" stroke-linejoin="round" d="M63.685 86.42L69.672 108.773"/>
                    <path stroke="url(#pr4zbl7m6a)" stroke-linecap="round" stroke-linejoin="round" d="M77.855 77.838L94.022 94.004"/>
                    <path stroke="url(#e9eegvspse)" stroke-linecap="round" stroke-linejoin="round" d="M85.34 66.561L106.795 74.844"/>
                    <path stroke="url(#jcw3sg3fnj)" stroke-linecap="round" stroke-linejoin="round" d="M86.986 55.434L110.388 55.285"/>
                    <circle cx="55.103" cy="55.484" r="31.933" stroke="url(#pr4zbl7m6a)"/>
                    <circle cx="55.285" cy="55.285" r="55.285" stroke="url(#4398c4uw3k)"/>
                </g>
                <g fill="#FFF">
                    <g>
                        <path d="M.285 4.385c-.077 0-.144-.028-.2-.084C.028 4.245 0 4.178 0 4.1c0-.076.028-.142.085-.198.056-.057.123-.085.2-.085h1.627c-.006-.053-.01-.103-.013-.15-.003-.047-.004-.097-.004-.15 0-.272.052-.528.155-.77.104-.242.246-.453.427-.633s.393-.322.636-.425c.243-.103.504-.155.783-.155.273 0 .53.052.774.155.243.103.455.245.636.425.18.18.323.39.427.633.104.242.155.498.155.77 0 .053-.001.103-.004.15s-.007.097-.013.15h1.512c.083 0 .152.028.209.085.056.056.084.122.084.199 0 .076-.028.143-.084.199-.057.056-.126.084-.21.084H5.089l.142-.38c.03-.077.052-.157.067-.24.015-.082.022-.165.022-.247 0-.39-.14-.723-.418-1-.279-.278-.614-.416-1.005-.416-.397 0-.735.138-1.014.416-.279.277-.418.61-.418 1 0 .082.007.163.022.243.015.08.037.16.067.243l.142.38H.285zm7.107 1.062c.077 0 .143.026.2.08.056.052.084.12.084.203 0 .077-.028.143-.084.199-.057.056-.123.084-.2.084H.285c-.077 0-.144-.028-.2-.084C.028 5.873 0 5.807 0 5.729c0-.082.028-.15.085-.203.056-.053.123-.08.2-.08h7.107z" transform="translate(-480 -584) translate(480 584) translate(4.79 4.79) translate(23.55 12.773)"/>
                    </g>
                    <g>
                        <path d="M7.388 5.91c.078 0 .145.03.203.087.057.058.085.127.085.206 0 .085-.027.157-.08.214-.055.058-.124.087-.208.087h-1.11c-.036 0-.07-.003-.104-.01l-.103-.017c-.127.152-.259.295-.397.429-.139.133-.28.258-.424.374-.024.018-.051.033-.081.045-.03.013-.063.019-.1.019-.042 0-.082-.011-.121-.032-.04-.022-.074-.047-.104-.078-.024-.03-.04-.064-.05-.1-.009-.037-.013-.076-.013-.119.006-.036.018-.073.036-.11.018-.036.042-.063.072-.082.114-.097.229-.199.343-.305.114-.107.222-.218.325-.333-.006-.006-.011-.013-.014-.019-.003-.006-.008-.012-.014-.018-.066-.085-.118-.18-.157-.287-.04-.107-.059-.215-.059-.324V1.494c0-.165-.057-.306-.171-.425C5.027.95 4.886.891 4.718.891c-.163 0-.303.06-.42.178-.117.119-.176.26-.176.425v4.709c0 .085-.028.157-.085.214-.058.058-.125.087-.203.087-.079 0-.146-.029-.203-.087-.057-.057-.086-.129-.086-.214v-4.71c0-.164-.059-.305-.176-.424C3.252.95 3.112.891 2.95.891c-.168 0-.309.06-.423.178-.115.119-.172.26-.172.425v4.709c0 .085-.028.157-.085.214-.058.058-.128.087-.212.087-.079 0-.146-.029-.203-.087-.057-.057-.086-.129-.086-.214v-4.71c0-.164-.059-.305-.176-.424-.117-.119-.257-.178-.42-.178-.162 0-.302.06-.419.178-.117.119-.176.26-.176.425 0 .085-.028.156-.085.214-.058.058-.125.087-.203.087-.085 0-.154-.03-.208-.087C.027 1.65 0 1.578 0 1.494c0-.329.114-.609.343-.84.228-.231.505-.347.83-.347.174 0 .338.035.491.105.154.07.284.169.393.297.114-.128.248-.227.401-.297.153-.07.317-.105.492-.105.168 0 .33.035.487.105.156.07.288.169.397.297.108-.128.24-.227.397-.297.156-.07.318-.105.487-.105.324 0 .602.116.834.347.232.231.347.511.347.84v.958c.072-.037.148-.064.226-.082.078-.019.162-.028.252-.028.169 0 .325.037.47.11.144.073.264.176.36.31.139.195.217.437.235.726.018.289-.027.591-.136.908-.024.067-.099.243-.225.53-.126.285-.319.614-.577.985h.884zm-1.489-.3l.063.063c.259-.37.45-.7.573-.985.124-.286.194-.447.212-.484.072-.225.107-.435.104-.63-.003-.194-.047-.353-.13-.474-.043-.061-.093-.105-.15-.133-.057-.027-.124-.04-.203-.04-.21 0-.34.072-.392.218-.051.146-.08.24-.086.283v2.109c0 .012.002.025.005.04.003.016.004.027.004.033z" transform="translate(-480 -584) translate(480 584) translate(4.79 4.79) translate(52.291)"/>
                    </g>
                    <g>
                        <path d="M7.458 5.04c.077.017.137.061.179.131.041.07.05.144.026.223-.041.187-.116.356-.223.504-.107.148-.238.271-.392.368-.16.103-.33.17-.509.2-.178.03-.36.021-.544-.027-.178-.043-.342-.119-.49-.228-.15-.109-.271-.242-.366-.4-.095-.163-.158-.336-.188-.517-.03-.182-.023-.364.018-.545.018-.08.042-.152.072-.219.03-.066.068-.133.116-.2.017-.024.038-.05.062-.081.024-.03.054-.064.09-.1l.066-.073c.033-.036.058-.066.076-.09l.036-.028c.178-.188.304-.34.379-.454.074-.115.13-.246.165-.391.095-.418.033-.809-.187-1.172-.22-.364-.533-.597-.937-.7-.41-.097-.796-.033-1.155.191-.36.224-.588.545-.683.963-.053.236-.052.476.005.718.056.242.165.457.325.645.202.249.34.524.415.827.074.303.076.606.005.909-.107.454-.34.82-.696 1.1-.357.278-.753.417-1.187.417-.077 0-.151-.003-.223-.01-.071-.005-.145-.017-.223-.035-.25-.061-.478-.167-.687-.318-.208-.152-.38-.34-.517-.564C.149 5.86.061 5.62.023 5.362c-.039-.258-.028-.513.031-.768.06-.254.164-.488.312-.7.149-.212.333-.387.553-.527.22-.139.455-.228.705-.268.25-.039.5-.028.75.032.017.006.037.01.057.014.021.003.04.007.058.013-.023-.145-.035-.293-.035-.445 0-.151.018-.303.053-.454.066-.285.182-.54.348-.768.167-.227.364-.412.593-.554.23-.142.48-.24.754-.29.274-.052.55-.042.83.03.28.068.53.184.754.35.223.167.404.367.544.6.14.234.235.49.285.768.05.279.04.56-.031.845-.048.206-.119.386-.214.54-.095.155-.253.348-.473.578l-.036.045-.075.078c-.027.027-.044.046-.05.059l-.062.068c-.018.02-.033.04-.045.059-.023.036-.043.07-.058.1-.014.03-.025.066-.03.109-.054.224-.023.433.093.627.116.194.284.315.504.363.214.055.416.023.607-.095.19-.118.312-.29.365-.514.006-.036.021-.07.045-.1.024-.03.05-.057.08-.081.036-.019.073-.03.112-.037.038-.006.075-.006.111 0zm-4.201.326c.083-.37.026-.717-.17-1.044-.196-.328-.476-.537-.838-.627-.363-.085-.704-.028-1.022.172-.318.2-.522.485-.61.854-.043.182-.049.362-.019.54.03.18.092.348.188.505.089.158.206.29.352.395.146.106.308.18.486.223.173.049.347.058.522.027.175-.03.343-.094.504-.19.149-.097.276-.22.384-.368.107-.149.18-.31.223-.487z" transform="translate(-480 -584) translate(480 584) translate(4.79 4.79) translate(83.825 3.992)"/>
                    </g>
                    <g>
                        <path d="M6.673 1.008c.372.126.65.373.833.741.183.369.219.745.107 1.13-.048.154-.114.296-.2.428-.084.132-.188.248-.31.346-.058.05-.122.07-.19.058-.07-.01-.128-.044-.176-.099-.021-.033-.036-.066-.044-.099s-.01-.068-.004-.107c.006-.033.016-.064.032-.095.016-.03.037-.056.064-.078.08-.066.148-.141.207-.227.058-.085.1-.177.127-.276.075-.252.05-.498-.071-.737-.123-.24-.303-.4-.542-.483-.244-.082-.484-.064-.72.054-.237.118-.4.3-.49.548L4.14 6.49c-.016.055-.047.1-.092.136-.045.036-.097.053-.155.053h-.128c-.058 0-.11-.017-.155-.053s-.076-.084-.091-.144L2.38 2.145c-.084-.253-.244-.44-.477-.565-.234-.123-.47-.15-.709-.078-.127.039-.24.102-.338.19-.099.088-.18.192-.243.313-.059.12-.092.249-.1.383-.008.135.01.268.052.4.032.088.074.17.127.247.053.077.117.143.191.198.059.05.092.11.1.181.008.072-.01.138-.052.198-.042.055-.1.087-.171.095-.072.008-.134-.01-.187-.054-.117-.087-.216-.19-.299-.309-.082-.118-.147-.246-.195-.383-.064-.198-.089-.401-.076-.61.014-.209.065-.406.156-.593.09-.187.212-.346.366-.478s.33-.228.526-.289c.377-.12.742-.085 1.095.107.353.193.596.487.728.882l.004.004c.003.003.004.007.004.013l.956 3.643.972-3.676V1.95c0-.002.002-.006.008-.012.132-.39.38-.676.74-.857.361-.182.733-.206 1.115-.074z" transform="translate(-480 -584) translate(480 584) translate(4.79 4.79) translate(100.99 110.57)"/>
                    </g>
                    <g>
                        <path d="M5.855 3.36c-.487 0-.905.171-1.255.515-.35.343-.525.755-.525 1.24 0 .37.108.703.324 1.003.216.3.5.513.85.64l.122.045-.124.042c-.206.07-.414.123-.624.157-.21.035-.426.053-.647.053-.512 0-1.004-.096-1.474-.288-.47-.192-.886-.466-1.25-.822-.03-.03-.062-.05-.098-.062-.037-.012-.075-.018-.112-.018-.043 0-.083.007-.12.022-.037.015-.067.034-.09.058-.031.03-.054.063-.07.099-.015.035-.022.07-.022.106 0 .042.007.08.023.116.014.035.036.063.069.089.209.205.433.388.674.548.24.16.494.293.762.4.268.105.545.187.831.245.285.058.578.087.877.087.286 0 .57-.027.852-.082.282-.054.554-.134.815-.24.261-.106.512-.234.753-.385.24-.15.464-.324.673-.522.179-.168.318-.365.417-.59.1-.226.15-.46.15-.701 0-.485-.173-.897-.52-1.24-.347-.344-.766-.515-1.26-.515zm0 .58c.33 0 .612.116.845.345.234.23.352.507.352.83 0 .323-.118.6-.352.83-.233.229-.516.344-.845.344-.328 0-.61-.115-.845-.344-.234-.23-.351-.507-.351-.83 0-.323.117-.6.351-.83.234-.23.517-.344.845-.344zM3.976.308c-.285 0-.569.027-.851.082-.282.055-.554.133-.815.236-.261.102-.512.23-.752.384-.24.153-.465.33-.674.527-.179.169-.32.364-.423.587-.103.221-.154.456-.154.705 0 .477.174.886.525 1.23.35.343.771.514 1.266.514.487 0 .905-.171 1.255-.515.35-.343.525-.752.525-1.23 0-.37-.108-.705-.324-1.008-.216-.302-.499-.514-.849-.635l-.127-.044.128-.043c.206-.07.414-.122.624-.157.21-.035.426-.052.646-.052.513 0 1.004.094 1.474.282.47.189.887.461 1.25.817.03.03.063.05.099.062.037.012.075.018.112.018.043 0 .083-.007.12-.022.037-.015.067-.034.094-.06.03-.024.05-.052.065-.086.016-.036.023-.074.023-.117 0-.035-.007-.07-.023-.106-.015-.036-.038-.068-.069-.099-.208-.205-.435-.385-.678-.542C6.199.877 5.945.746 5.68.64 5.415.534 5.14.452 4.854.394 4.568.336 4.276.307 3.976.307zM2.098 1.653c.321 0 .602.116.84.345.237.229.356.507.356.83 0 .316-.12.591-.357.824-.237.233-.518.35-.84.35-.328 0-.612-.117-.85-.35C1.01 3.42.89 3.144.89 2.828c0-.323.12-.601.358-.83.237-.23.521-.345.85-.345z" transform="translate(-480 -584) translate(480 584) translate(4.79 4.79) translate(109.771 22.753)"/>
                    </g>
                    <g>
                        <path d="M6.359 6.595c-.192-.224-.384-.448-.64-.607-.224-.16-.48-.32-.736-.416V2.149c.256-.096.512-.256.736-.415.224-.192.448-.384.64-.608.032-.064.032-.096.064-.128V.87c0-.032-.032-.096-.032-.096C6.359.742 6.359.71 6.327.71 6.263.646 6.23.646 6.199.646H6.07c-.032 0-.064 0-.128.032-.032.032-.064.032-.096.064-.256.352-.576.608-.96.8-.384.192-.8.288-1.247.288-.448 0-.864-.096-1.248-.288-.383-.192-.703-.448-.96-.8 0-.032-.031-.064-.063-.096-.032 0-.064-.032-.096-.032h-.128c-.032.032-.064.032-.096.064S.985.71.953.742C.953.806.921.838.921.87v.128c.032.032.032.064.064.096.192.224.384.448.64.608.224.16.48.32.735.447v3.423c-.255.128-.511.256-.735.448-.224.191-.448.383-.608.607-.064 0-.064.032-.096.064v.128c0 .032.032.064.032.096.032.032.032.064.096.096.032.032.064.032.096.064h.128c.032 0 .064-.032.096-.032.032-.032.064-.032.096-.096.256-.352.576-.608.96-.8.383-.191.799-.287 1.247-.287.448 0 .863.096 1.247.287.384.192.704.448.992.8.032.032.032.064.096.064.032.032.064.032.128.032h.032c.032 0 .064 0 .096-.032.032 0 .064-.032.096-.032.032-.032.064-.064.064-.096.031-.032.031-.064.031-.096V6.66c-.063 0-.063-.032-.095-.064zM4.407 2.31v3.039c-.095-.032-.223-.032-.351-.064-.128 0-.256-.032-.384-.032s-.256 0-.384.032c-.096 0-.224.032-.32.064V2.309c.448.096.96.096 1.44 0z" transform="translate(-480 -584) translate(480 584) translate(4.79 4.79) translate(122.545 51.892)"/>
                    </g>
                    <g>
                        <path d="M7.388.614c.078 0 .145.03.203.088.057.059.085.128.085.208 0 .08-.028.15-.085.209-.058.058-.125.088-.203.088-.373 0-.698.074-.975.222-.276.148-.547.398-.811.75-.115.154-.226.285-.334.393-.108.108-.223.2-.343.273.337.204.603.477.798.82.196.342.294.714.294 1.115 0 .309-.058.599-.172.87-.114.272-.27.508-.469.708-.198.201-.43.36-.694.477-.265.117-.545.176-.84.176-.3 0-.583-.059-.847-.176-.265-.117-.496-.276-.695-.477-.198-.2-.355-.436-.469-.708-.114-.271-.171-.561-.171-.87 0-.401.096-.771.288-1.11.193-.34.454-.612.785-.816-.12-.074-.237-.166-.352-.277-.114-.111-.225-.241-.333-.39-.223-.339-.475-.587-.758-.744-.283-.158-.616-.236-1.001-.236-.079 0-.146-.028-.203-.084C.029 1.068 0 .997 0 .91 0 .83.029.76.086.702.143.643.21.614.289.614c.487 0 .912.099 1.276.296.364.198.684.506.96.926.187.26.381.443.583.55.201.109.446.163.735.163.276 0 .51-.054.703-.162.193-.108.391-.298.596-.57.324-.42.664-.725 1.019-.916.355-.191.764-.287 1.227-.287zM3.843 3.141c-.44 0-.815.16-1.128.482-.313.32-.469.706-.469 1.157 0 .45.156.836.47 1.157.312.321.688.482 1.127.482.433 0 .805-.16 1.118-.482.313-.32.47-.706.47-1.157 0-.45-.157-.836-.47-1.157-.313-.321-.685-.482-1.118-.482z" transform="translate(-480 -584) translate(480 584) translate(4.79 4.79) translate(120.15 83.027)"/>
                    </g>
                    <g>
                        <path d="M7.076 3.537c.067 0 .134.033.2.099.068.065.068.098.068.164 0 .065-.034.131-.067.197-.067.065-.1.098-.201.098H5.434c.033.46.2.886.435 1.28.235.36.536.623.905.754.067.033.1.066.134.131.034.066.034.131 0 .23-.033.065-.067.131-.134.164s-.134.033-.201 0c-.235-.099-.436-.23-.637-.394-.2-.164-.368-.36-.502-.59-.134-.23-.268-.46-.369-.755-.1-.295-.167-.558-.167-.853H2.753c-.033.295-.1.558-.167.853-.1.263-.201.525-.369.755-.134.23-.335.426-.503.59-.167.164-.402.295-.636.394h-.034-.033c-.067 0-.1-.033-.168-.066-.033-.033-.067-.065-.1-.131v-.098c0-.033 0-.066.033-.099 0-.033.034-.065.067-.098.034-.033.067-.033.1-.066.336-.131.637-.394.905-.754.268-.361.402-.788.436-1.28H.575c-.067 0-.134-.033-.2-.098-.034 0-.068-.066-.068-.164 0-.099.034-.131.067-.197.034-.066.1-.098.201-.098h1.642c-.034-.427-.168-.853-.436-1.247-.268-.394-.536-.623-.87-.755-.034 0-.068-.032-.101-.065-.034-.033-.067-.033-.067-.099 0-.032-.034-.065-.034-.098v-.098c.034-.066.1-.132.168-.164.067-.033.134-.033.2 0 .235.065.436.196.637.36.201.164.369.361.503.59.134.23.268.46.369.755.1.263.167.558.167.853h2.145c.033-.295.067-.557.167-.853.1-.295.201-.524.369-.754.134-.23.335-.427.502-.59.201-.165.402-.296.637-.394.067-.033.134-.033.201 0s.1.098.134.164c.034.065.034.131 0 .23-.033.065-.067.13-.167.13-.336.132-.637.394-.905.755-.235.361-.402.787-.436 1.28h1.676v.032z" transform="translate(-480 -584) translate(480 584) translate(4.79 4.79) translate(70.653 123.742)"/>
                    </g>
                    <g>
                        <path d="M5.53 4.448c.244 0 .442.053.596.159.154.105.32.27.498.494.142.177.257.293.343.349.086.056.188.084.306.084.083 0 .151.028.205.084.053.056.08.122.08.198 0 .083-.027.152-.08.208-.054.056-.122.084-.205.084-.243 0-.441-.053-.595-.16-.155-.105-.32-.27-.498-.494-.143-.176-.257-.293-.343-.349-.086-.055-.188-.083-.306-.083-.125 0-.229.028-.312.083-.083.056-.198.173-.346.35-.178.223-.344.388-.498.494-.154.106-.353.159-.596.159s-.442-.053-.596-.16c-.154-.105-.32-.27-.498-.494-.148-.176-.264-.293-.347-.349-.083-.055-.186-.083-.31-.083-.12 0-.222.028-.307.083-.086.056-.2.173-.343.35-.178.223-.344.388-.498.494-.154.106-.352.159-.595.159-.083 0-.152-.028-.205-.084C.027 5.968 0 5.899 0 5.816c0-.076.027-.142.08-.198.053-.056.122-.084.205-.084.124 0 .228-.028.31-.084.084-.056.196-.172.339-.349.177-.224.343-.389.498-.494.154-.106.352-.16.595-.16.25 0 .45.054.6.16.152.105.32.27.503.494.142.177.255.293.338.349.083.056.186.084.31.084.125 0 .23-.028.312-.084.083-.056.196-.172.338-.349.184-.224.351-.389.502-.494.152-.106.352-.16.6-.16zm0-2.606c.244 0 .442.053.596.16.154.105.32.27.498.494.142.176.257.293.343.349.086.056.188.084.306.084.083 0 .151.028.205.083.053.056.08.126.08.208 0 .077-.027.143-.08.199-.054.056-.122.084-.205.084-.243 0-.441-.053-.595-.16-.155-.105-.32-.27-.498-.494-.143-.177-.257-.293-.343-.349-.086-.056-.188-.084-.306-.084-.125 0-.229.028-.312.084-.083.056-.198.172-.346.35-.178.223-.344.388-.498.494-.154.106-.353.159-.596.159s-.442-.053-.596-.16c-.154-.105-.32-.27-.498-.494-.148-.177-.264-.293-.347-.349-.083-.056-.186-.084-.31-.084-.12 0-.222.028-.307.084-.086.056-.2.172-.343.35-.178.223-.344.388-.498.494-.154.106-.352.159-.595.159-.083 0-.152-.028-.205-.084C.027 3.363 0 3.297 0 3.22c0-.082.027-.152.08-.208.053-.055.122-.083.205-.083.124 0 .228-.028.31-.084.084-.056.196-.173.339-.35.177-.223.343-.388.498-.494.154-.106.352-.159.595-.159.25 0 .45.053.6.16.152.105.32.27.503.494.142.176.255.293.338.349.083.056.186.084.31.084.125 0 .23-.028.312-.084.083-.056.196-.173.338-.35.184-.223.351-.388.502-.494.152-.106.352-.159.6-.159z" transform="translate(-480 -584) translate(480 584) translate(4.79 4.79) translate(38.72 118.553)"/>
                    </g>
                    <g>
                        <path d="M3.418 0c.37 0 .686.125.949.374.263.25.394.552.394.906v3.282c.075-.108.155-.21.24-.306.084-.096.177-.172.277-.226.282-.168.532-.246.751-.234.22.012.398.051.535.117.245.108.442.274.592.496.15.222.235.427.254.613.025.162.006.353-.057.573-.062.219-.178.422-.347.608-.107.114-.26.229-.46.343-.2.114-.464.171-.79.171-.137 0-.342-.027-.614-.081-.273-.054-.506-.19-.7-.406-.188.289-.412.56-.671.812-.26.252-.565.378-.916.378-.094 0-.188-.01-.282-.031-.094-.021-.188-.05-.282-.086-.037-.018-.07-.04-.098-.067-.028-.027-.049-.059-.061-.095-.019-.042-.027-.081-.024-.117.003-.036.014-.072.033-.108.013-.037.035-.068.066-.095.031-.027.066-.047.103-.059.038-.012.077-.018.118-.018.04 0 .076.01.108.027.294.132.565.086.812-.14.247-.225.518-.584.812-1.077V1.28c0-.192-.072-.357-.216-.496C3.8.646 3.625.577 3.418.577c-.2 0-.372.07-.516.207-.144.139-.216.304-.216.496v4.545c0 .084-.03.153-.09.207-.059.054-.13.081-.21.081-.088 0-.16-.027-.217-.081-.056-.054-.084-.123-.084-.207V1.28c0-.192-.072-.357-.216-.496-.144-.138-.32-.207-.526-.207-.2 0-.373.07-.517.207-.144.139-.219.304-.225.496 0 .084-.028.155-.084.212-.057.057-.129.086-.216.086-.082 0-.152-.029-.212-.086C.03 1.435 0 1.364 0 1.28 0 .926.131.624.394.374S.974 0 1.343 0c.2 0 .391.04.573.122.181.08.335.197.46.347.131-.15.288-.266.47-.347C3.027.04 3.218 0 3.418 0zm2.545 4.386c-.119.015-.244.059-.375.131-.1.066-.216.202-.348.406-.131.204-.256.409-.375.613l-.075.117c.05.163.156.284.319.365.163.082.379.122.648.122.169 0 .32-.025.45-.077.132-.05.245-.13.339-.238.119-.127.195-.26.23-.402.034-.14.045-.25.033-.329-.013-.09-.065-.206-.155-.347-.091-.141-.208-.245-.352-.311-.107-.048-.22-.065-.339-.05z" transform="translate(-480 -584) translate(480 584) translate(4.79 4.79) translate(13.173 98.994)"/>
                    </g>
                    <g>
                        <path d="M7.097 0c.088 0 .163.032.227.096.064.063.096.139.096.226v3.222c0 .087-.03.163-.09.227-.061.063-.139.095-.233.095-.088 0-.164-.032-.228-.095-.064-.064-.096-.14-.096-.227V1.108l-3.69 3.664 1.264 1.259c.06.06.091.136.091.227 0 .09-.03.166-.09.226-.035.034-.072.059-.112.076-.04.016-.081.025-.121.025-.048 0-.091-.009-.132-.025-.04-.017-.074-.042-.1-.076L2.617 5.246.566 7.33c-.034.033-.07.057-.111.07-.04.014-.084.02-.131.02-.04 0-.081-.006-.122-.02-.04-.013-.077-.037-.111-.07-.027-.034-.049-.07-.066-.11C.008 7.178 0 7.138 0 7.097c0-.047.008-.09.025-.13.017-.04.039-.074.066-.101l2.062-2.084L.89 3.523C.863 3.49.84 3.456.824 3.419.807 3.381.799 3.34.799 3.292c0-.04.008-.08.025-.12.017-.04.039-.078.066-.111.033-.027.07-.049.11-.066.041-.016.082-.025.122-.025.047 0 .091.007.132.02.04.014.074.037.1.07l1.264 1.26L6.308.643H3.862c-.088 0-.164-.03-.228-.09S3.538.416 3.538.322c0-.087.032-.163.096-.226.064-.064.14-.096.228-.096h3.235z" transform="translate(-480 -584) translate(480 584) translate(4.79 4.79) translate(0 70.254)"/>
                    </g>
                    <g>
                        <path d="M7.604 6.298c.048.048.072.107.072.176 0 .07-.024.132-.072.186l-.442.553c-.024.042-.057.073-.1.09-.041.019-.083.028-.125.028-.03 0-.06-.006-.09-.018-.03-.012-.06-.027-.09-.046-.06-.054-.095-.122-.105-.204-.009-.081.011-.152.06-.213l.062-.081H6.27c-.258 0-.482-.094-.672-.281-.19-.187-.284-.414-.284-.68V1.792c0-.163-.057-.303-.171-.421-.115-.118-.256-.177-.424-.177-.163 0-.303.06-.42.177-.117.118-.176.258-.176.421V6.48c0 .078-.028.146-.085.204-.058.057-.125.086-.203.086-.079 0-.146-.029-.203-.086-.057-.058-.086-.126-.086-.204V1.792c0-.163-.059-.303-.176-.421-.117-.118-.257-.177-.42-.177-.168 0-.309.06-.423.177-.115.118-.172.258-.172.421V6.48c0 .078-.028.146-.085.204-.058.057-.128.086-.212.086-.079 0-.146-.029-.203-.086-.057-.058-.086-.126-.086-.204V1.792c0-.163-.059-.303-.176-.421-.117-.118-.257-.177-.42-.177-.162 0-.302.06-.419.177-.117.118-.176.258-.176.421 0 .085-.028.156-.085.214-.058.057-.125.086-.203.086-.085 0-.154-.03-.208-.086C.027 1.948 0 1.877 0 1.792c0-.326.114-.604.343-.833.228-.23.505-.345.83-.345.174 0 .338.035.491.104.154.07.284.168.393.295.114-.127.248-.225.401-.295.153-.07.317-.104.492-.104.168 0 .33.035.487.104.156.07.288.168.397.295.108-.127.24-.225.397-.295.156-.07.318-.104.487-.104.324 0 .602.115.834.345.232.23.347.507.347.833v4.016c0 .109.036.2.109.272.072.072.159.109.261.109h.505l-.063-.082c-.048-.066-.068-.14-.059-.222.01-.081.044-.146.104-.195.03-.024.063-.04.1-.05.036-.009.075-.013.117-.013.036.006.07.018.103.036.034.018.062.042.086.073l.442.562z" transform="translate(-480 -584) translate(480 584) translate(4.79 4.79) translate(3.992 37.921)"/>
                    </g>
                </g>
            </g>
        </g>
    </g>
</svg>
