<svg xmlns="http://www.w3.org/2000/svg" xmlns:v="https://vecta.io/nano" viewBox="152.3 449.45 689.02 101.8"><g transform="matrix(.7 0 0 .7 149.575758 450.299181)"><svg viewBox="0 0 396 57" preserveAspectRatio="xMidYMid meet" height="143" width="1000"><g transform="translate(.24 -.199)"><svg height="57.398" width="395.52"><svg viewBox="0 0 476.478 69.146" height="57.398" width="395.52"><g transform="translate(0 9.556)"><svg height="50.033" width="395.52"><svg height="50.033" width="395.52"><svg height="50.033" width="395.52"><svg width="395.52" viewBox="0.9 -36.25 324.88 41.1" height="50.033"><path d="M15.85-30.25l-7 18.85H22l-6.15-18.85zM29.7-.45h0q-.6.85-1.75.85-1.15 0-1.77-.58-.63-.57-1.08-2.02h0l-2.25-6.65h-15l-2.35 6q-.7 1.7-1.35 2.47Q3.5.4 2.5.4 1.5.4.9-1.05h0q1-.4 1.6-1.95h0l12.15-30.5q-.45-1.2-1.1-1.85h0q1.05-.65 1.9-.65h0q1.45 0 2.25 2.4h0L28.2-2.5q.5 1.55 1.5 2.05zM57.25-29.3h0q0 1.3-.65 2.02-.65.73-1.75.73h0q-.3 0-.78-.1-.47-.1-.57-.1h0q.15-.8.15-1.4h0q0-1.95-2.03-3.7-2.02-1.75-5.65-1.75-3.62 0-5.75 1.58-2.12 1.57-2.12 4.19 0 2.63 2.1 4.5 2.1 1.88 5.12 3.15 3.03 1.28 6.03 2.58 3 1.3 5.1 3.25 2.1 1.95 2.1 4.5h0q0 4.35-3.78 7.3Q51 .4 45.77.4q-5.22 0-8.6-2.45-3.37-2.45-3.37-6.2h0q0-1.45.77-2.4.78-.95 2.1-.95 1.33 0 1.88 1.05h0Q37.4-9.5 37.4-7.9h0q0 2.4 2.2 4 2.2 1.6 6.02 1.6 3.83 0 6.75-2.08Q55.3-6.45 55.3-9.3h0q0-1.75-1.53-3.2-1.52-1.45-3.77-2.4-2.25-.95-4.93-2.15-2.67-1.2-4.92-2.38-2.25-1.17-3.78-3.2-1.52-2.02-1.52-4.57h0q0-3.9 3.45-6.48 3.45-2.57 8.12-2.57 4.68 0 7.75 2.05 3.08 2.05 3.08 4.9zm8.55-6.3h0 19.5q2.25 0 2.25 1.8h0q0 .9-.65 1.55h0q-1-.65-2.65-.65h0-7.7v30.35q0 1.1 1.15 1.5h0Q76.95.4 75.65.4h0q-2.3 0-2.3-2.85h0V-32.9H64.7q-2.2 0-2.2-1.8h0q0-.95.65-1.5h0q1.1.6 2.65.6zm30.99 2.7v15.25h7.4q4.4 0 6.63-2 2.22-2 2.22-5.58 0-3.57-2.22-5.62-2.23-2.05-6.63-2.05h0-7.4zM117.39-2h0q.15 0 .3 0h0q-1 2.35-2.95 2.35h0q-1.15 0-1.9-.63-.75-.62-2.15-2.47h0L101.79-15h-4.95v12.45q0 1.15 1.15 1.5h0Q97.19.4 95.84.4h0q-2.2 0-2.2-2.85h0V-32.3q0-1.15-1.15-1.6h0q1.05-1.7 3.85-1.7h0 7.8q5.8 0 9.1 2.72 3.3 2.73 3.3 7.38 0 4.65-2.8 7.32-2.8 2.68-7.8 3.13h0l8.95 11.75q1 1.3 2.5 1.3zm8.5-14.75q.65 7.25 4.35 10.9 3.7 3.65 8.88 3.65 5.17 0 8.47-4.6h0q2.7-3.8 2.7-9.6h0q0-1.1-.1-2.35h0q-.55-7.3-4.27-11-3.73-3.7-8.95-3.7-5.23 0-8.48 4.65h0q-2.7 3.8-2.7 9.5h0q0 1.25.1 2.55h0zM138.07-36q6.77 0 11.02 4.85 4.25 4.85 4.25 13.22 0 8.38-4.27 13.35Q144.79.4 138.04.4q-6.75 0-11.05-4.9-4.3-4.9-4.3-13.28 0-8.37 4.3-13.3 4.3-4.92 11.08-4.92zm48.57 3.2h0-7.4v16.3h7.4q4.35 0 6.6-2.25 2.25-2.25 2.25-5.88 0-3.62-2.25-5.9-2.25-2.27-6.6-2.27zm-7.85-2.8h0 7.7q5.7 0 9.05 3.02 3.35 3.03 3.35 7.9 0 4.88-3.35 7.9-3.35 3.03-9.05 3.03h0-7.2v11.2q0 1.15 1.15 1.5h0Q179.64.4 178.29.4h0q-2.2 0-2.2-2.85h0V-32.3q0-1.15-1.15-1.6h0q1.05-1.7 3.85-1.7zm38.54 5.35l-7 18.85h13.15l-6.15-18.85zm13.85 29.8h0q-.6.85-1.75.85-1.15 0-1.77-.58-.63-.57-1.08-2.02h0l-2.25-6.65h-15l-2.35 6q-.7 1.7-1.35 2.47-.65.78-1.65.78-1 0-1.6-1.45h0q1-.4 1.6-1.95h0l12.15-30.5q-.45-1.2-1.1-1.85h0q1.05-.65 1.9-.65h0q1.45 0 2.25 2.4h0l10.5 31.1q.5 1.55 1.5 2.05zm30.65 5.3h0q-2.25 0-2.25-2.8h0l.05-6.25q-1.6 1.8-4.2 3.2-2.6 1.4-5.6 1.4h0q-6.35 0-10.42-4.43-4.08-4.42-4.08-11.77h0q0-9 5.15-14.6 5.15-5.6 13.05-5.6h0q4.6 0 7.25 1.8 2.65 1.8 2.65 4.2h0q0 .95-.6 1.55-.6.6-1.4.6-.8 0-1.35-.2h0q0-.2 0-.4h0q0-1.85-1.82-3.23-1.83-1.37-5.53-1.37h0q-6.35 0-10.07 4.27-3.73 4.28-3.73 11.6 0 7.33 2.95 10.98 2.95 3.65 8.15 3.65h0q2.8 0 5.08-1.13 2.27-1.12 4.62-3.47h0l.1-8.85h-3.35q-3.45 0-6.45.3h0q-.5-.5-.5-1.1h0q0-1 1.78-1.45 1.77-.45 5.77-.45 4 0 4.95.55.95.55.95 2.1h0l-.15 17.95q0 1.1 1.15 1.5h0q-.7 1.45-2.15 1.45zm17.2-7.4h0 10.65q2.65 0 3.65-2.1h0q.6.15 1.02.67.43.53.43 1.08h0q0 2.9-5.3 2.9h0-10.35q-3.6 0-5.3-1.4-1.7-1.4-1.7-4.6h0v-26.3q0-1.15-1.15-1.6h0q1.05-1.7 3.85-1.7h0 15.55q4.4 0 4.4 2.2h0q0 1.4-1.45 1.75h0q-1.1-1.35-3.65-1.35h0-14.35v13.45h11.55q2.4 0 3.42.32 1.03.33 1.03 1.41 0 1.07-1.15 1.62h0q-1.1-.75-3.65-.75h0-11.2V-5.9q0 1.8.85 2.57.85.78 2.85.78zm45.45-26.75h0q0 1.3-.65 2.02-.65.73-1.75.73h0q-.3 0-.78-.1-.47-.1-.57-.1h0q.15-.8.15-1.4h0q0-1.95-2.03-3.7-2.02-1.75-5.65-1.75-3.62 0-5.75 1.58-2.12 1.57-2.12 4.19 0 2.63 2.1 4.5 2.1 1.88 5.12 3.15 3.03 1.28 6.03 2.58 3 1.3 5.1 3.25 2.1 1.95 2.1 4.5h0q0 4.35-3.78 7.3Q318.23.4 313 .4q-5.22 0-8.6-2.45-3.37-2.45-3.37-6.2h0q0-1.45.77-2.4.78-.95 2.1-.95 1.33 0 1.88 1.05h0q-1.15 1.05-1.15 2.65h0q0 2.4 2.2 4 2.2 1.6 6.02 1.6 3.83 0 6.75-2.08 2.93-2.07 2.93-4.92h0q0-1.75-1.53-3.2-1.52-1.45-3.77-2.4-2.25-.95-4.93-2.15-2.67-1.2-4.92-2.38-2.25-1.17-3.78-3.2-1.52-2.02-1.52-4.57h0q0-3.9 3.45-6.48 3.45-2.57 8.12-2.57 4.68 0 7.75 2.05 3.08 2.05 3.08 4.9z"/></svg></svg></svg></svg></g><g transform="translate(407.332)"><svg height="69.146" width="69.146"><g stroke="transparent"><path d="M0 0h18.9v69.146H0z"/><path fill-opacity=".75" d="M23.049 0h18.9v69.146h-18.9z"/><path fill-opacity=".5" d="M46.097 0h18.9v69.146h-18.9z"/></g></svg></g></svg></svg></g></svg></g></svg>